<svg id="e414d430-366b-418a-923a-18f2fa968518" data-name="Ebene 1" xmlns="http://www.w3.org/2000/svg" viewBox="0 0 703.89 558.47"><circle cx="256.66" cy="514" r="40.5"/><path d="M267.5,555a40,40,0,1,1-40,40,40,40,0,0,1,40-40m0-1a41,41,0,1,0,41,41,41,41,0,0,0-41-41Z" transform="translate(-10.84 -81)"/><circle cx="524.66" cy="516" r="41"/><path d="M575,597a39.42,39.42,0,1,1-.47-6.15A39.87,39.87,0,0,1,575,597a1.5,1.5,0,0,0,3,0,42.54,42.54,0,1,0-.52,6.61A45.66,45.66,0,0,0,578,597,1.5,1.5,0,0,0,575,597Z" transform="translate(-10.84 -81)"/><path d="M20.5,103l101.63-1.75L136.5,101l-9.64-7.34L135.12,136,155,237.63l23.91,122.43,20.76,106.27,6.84,35c1.07,5.47,1.81,11.15,3.23,16.55.06.25.1.51.15.76.83,4.26,5.49,7.34,9.64,7.34H550.14c15.19,0,30.51.6,45.68,0h.68c12.87,0,12.89-20,0-20H234.94c-4.84,0-9.93-.44-14.76,0-.22,0-.46,0-.68,0l9.64,7.34L220.88,471,201,369.37,177.12,246.94,156.36,140.67l-6.84-35c-1.07-5.47-1.81-11.15-3.23-16.55-.06-.25-.1-.51-.15-.76-.82-4.2-5.5-7.41-9.64-7.34L34.87,82.75,20.5,83c-12.86.22-12.9,20.22,0,20Z" transform="translate(-10.84 -81)"/><path d="M204.5,452l39.5-.15,94.88-.36,114.81-.43,99.29-.38c16.06-.06,32.28.57,48.33-.18H602c4.87,0,7.9-3.19,9.64-7.34l34.72-82.81,55.1-131.43,12.68-30.26c2.59-6.16-3.83-12.64-9.64-12.66l-54.74-.17-130.9-.41-158.26-.5-137.17-.43c-22-.07-44.22-.87-66.25-.21h-1c-12.87,0-12.89,20,0,20l54.74.17,130.9.41,158.26.5,137.17.43,44.89.14c7.05,0,14.33.57,21.36.07.32,0,.64,0,1,0l-9.64-12.66-34.72,82.81L605,407.58l-12.68,30.26L602,430.5l-39.5.15-94.88.36-114.81.43-99.29.38c-16.07.06-32.27-.48-48.33.18h-.69c-12.87.05-12.89,20.05,0,20Z" transform="translate(-10.84 -81)"/><path d="M778,310.5" transform="translate(-10.84 -81)" style="fill:none;stroke:#000;stroke-miterlimit:10;fill-rule:evenodd"/><path d="M265.5,90" transform="translate(-10.84 -81)" style="fill:none;stroke:#000;stroke-miterlimit:10;stroke-width:2px;fill-rule:evenodd"/><path d="M992.5,382" transform="translate(-10.84 -81)" style="fill:none;stroke:#000;stroke-miterlimit:10;stroke-width:2px;fill-rule:evenodd"/><path d="M115.71,633.17q1.58-18.93,4-61.16t2.79-60.43q-4.5,2.82-8.77,5.56t-18.52,13q.72-10.38,1.33-24.35t.61-20.57q6.21-3.54,14.07-8.43t9.62-6.16c1.18-.85,2.94-2.22,5.3-4.09q10.87.25,25.06.25,13.44,0,27.5-.25l-2.44,27.22L171,584.09l-1.23,33.21v15.87q-10.36-.25-25.26-.25Q127.19,632.92,115.71,633.17Z" transform="translate(-10.84 -81)" style="fill:#2dd36f"/><path d="M365.38,639q.19-2.3.32-6.07t.32-7.73q5.07-4.15,9.32-8.06,6.89-6.36,12.21-11.92a105.55,105.55,0,0,0,7.13-8.16,15.14,15.14,0,0,0,2.2-3.66,5.83,5.83,0,0,0,.39-2.1,4.61,4.61,0,0,0-.64-2.47,5,5,0,0,0-2-1.78,13,13,0,0,0-3.32-1.17,19.87,19.87,0,0,0-4.44-.44,47.33,47.33,0,0,0-7.21.58q-3.78.59-10.32,2.25l1.27-7q.43-2.1,1.27-8.06A146.51,146.51,0,0,1,396,571a50.24,50.24,0,0,1,9.81.93,26,26,0,0,1,8.4,3.15,16.2,16.2,0,0,1,5.57,5.18,11.78,11.78,0,0,1,1.85,6.37,19,19,0,0,1-.53,4.44,24.13,24.13,0,0,1-2,4.93,42.89,42.89,0,0,1-4.59,6.94,137.53,137.53,0,0,1-9.37,10.59q-5.08,5.18-12.21,11.62l5.37.05q1.9,0,7.55-.1c3.76-.06,6.37-.13,7.83-.19s3.28-.21,5.42-.44c-.09,1.56-.25,3.51-.46,5.86s-.43,5.21-.66,8.59q-12.15-.09-25.44-.1Q376.46,638.85,365.38,639Z" transform="translate(-10.84 -81)" style="fill:#2dd36f"/><path d="M602.88,637.1c-.28-4.3-.55-7.72-.83-10.26a40.47,40.47,0,0,0,12.79,2.38,10.33,10.33,0,0,0,5.7-1.41,4.31,4.31,0,0,0,2.17-3.79,3.56,3.56,0,0,0-2.2-3.4,16.46,16.46,0,0,0-6.88-1.08,40.69,40.69,0,0,0-5.52.35q.45-4.95.73-9.74a27.46,27.46,0,0,0,4.79.41,26,26,0,0,0,4.75-.36,5.1,5.1,0,0,0,2.87-1.42,3.31,3.31,0,0,0,1-2.29,3,3,0,0,0-.78-2,4.31,4.31,0,0,0-2.33-1.24,16.94,16.94,0,0,0-3.88-.37c-1.33,0-2.75.08-4.25.22s-3.54.49-6.12,1l1.58-7.39c.13-.66.26-1.36.38-2.1a106.88,106.88,0,0,1,12.63-.83,49.45,49.45,0,0,1,7.21.51,17.54,17.54,0,0,1,5.92,1.86,8.77,8.77,0,0,1,3.62,3.51,10.11,10.11,0,0,1,1.16,4.85,11.39,11.39,0,0,1-.43,3.11,9.6,9.6,0,0,1-1.32,2.78,11,11,0,0,1-2.09,2.27,15.71,15.71,0,0,1-2.35,1.59c-.77.4-1.78.85-3.05,1.36a20.33,20.33,0,0,1,3.13.86,10.07,10.07,0,0,1,2.27,1.28,8.58,8.58,0,0,1,1.93,2,8.1,8.1,0,0,1,1.18,2.52,11.55,11.55,0,0,1,.38,3,12.06,12.06,0,0,1-1.45,5.81,11.89,11.89,0,0,1-4.25,4.42,19.49,19.49,0,0,1-6.44,2.53,36.24,36.24,0,0,1-7.32.76,59.83,59.83,0,0,1-6.84-.37Q607.47,638.05,602.88,637.1Z" transform="translate(-10.84 -81)" style="fill:#2dd36f"/></svg>